<svg width="157" height="157" viewBox="0 0 157 157" fill="none" xmlns="http://www.w3.org/2000/svg">
<g clip-path="url(#clip0_2106_108)">
<path d="M0.381958 27.9112C0.381958 12.7072 12.7073 0.381836 27.9114 0.381836L128.853 0.381836C144.057 0.381836 156.382 12.7072 156.382 27.9112V128.852C156.382 144.056 144.057 156.382 128.853 156.382H27.9114C12.7073 156.382 0.381958 144.056 0.381958 128.852L0.381958 27.9112Z" fill="#F9C035"/>
<path fill-rule="evenodd" clip-rule="evenodd" d="M78.9341 39.3818C62.7954 39.3818 35.4828 42.8438 35.4828 55.8183C35.4828 57.1342 35.7686 58.351 36.2903 59.4774L38.5974 66.4088C39.7122 70.0735 49.8882 74.1093 69.1253 78.5172V83.4693C55.2579 81.4642 46.2338 79.2375 42.0534 76.7888L43.692 81.712C46.1719 85.1495 54.6499 88.1484 69.1253 90.7091V95.6786C57.735 94.1833 50.2314 92.454 46.6145 90.4906L47.9015 94.3585C49.5037 97.1895 56.5784 100.211 69.1253 103.423V108.404C59.9085 106.91 53.8846 105.383 51.0527 103.824L52.4673 108.072C56.9977 114.105 65.4258 117.208 77.7517 117.382C78.4014 117.391 78.9354 116.85 78.9442 116.173V116.156V61.3223C78.9442 60.6451 78.4174 60.0968 77.7677 60.0968C77.6205 60.0968 77.475 60.1252 77.3378 60.1812C71.4314 62.5937 64.0971 62.9264 55.3359 61.1787C51.9855 60.3414 49.3597 59.393 47.4523 58.4863C47.4175 58.4684 47.3867 58.4505 47.3487 58.4326C44.5159 57.0805 43.6264 55.5976 45.8749 53.9839C50.2851 51.3668 61.2469 47.9196 78.9341 47.9196C99.6692 47.9196 113.067 53.9325 113.067 63.2384C113.067 71.3609 100.363 75.5917 86.9355 76.7888C83.5586 76.7888 84.1068 78.5172 84.1068 81.712C84.1068 83.4472 84.1068 84.937 86.9355 84.937C104.97 83.2706 121.283 76.2566 121.283 63.2384C121.283 48.5225 105.056 39.3818 78.9341 39.3818Z" fill="#121212"/>
</g>
<defs>
<clipPath id="clip0_2106_108">
<rect x="0.381958" y="0.381836" width="156" height="156" fill="white"/>
</clipPath>
</defs>
</svg>
